<?xml version="1.0" encoding="UTF-8"?>
<!DOCTYPE svg PUBLIC "-//W3C//DTD SVG 1.1//EN" "http://www.w3.org/Graphics/SVG/1.1/DTD/svg11.dtd">
<!-- Creator: CorelDRAW X7 -->
<svg xmlns="http://www.w3.org/2000/svg" xml:space="preserve" width="18.0335cm" height="17.8862cm" version="1.1" style="shape-rendering:geometricPrecision; text-rendering:geometricPrecision; image-rendering:optimizeQuality; fill-rule:evenodd; clip-rule:evenodd"
viewBox="0 0 18034 17886"
 xmlns:xlink="http://www.w3.org/1999/xlink">
 <defs>
  <style type="text/css">
   <![CDATA[
    .fil0 {fill:#0E347A}
   ]]>
  </style>
 </defs>
 <g id="Camada_x0020_1">
  <metadata id="CorelCorpID_0Corel-Layer"/>
  <g id="_2167961101520">
   <g id="Double_Chevron_Down">
    <path class="fil0" d="M16092 8211l-7076 6974 -7076 -6975c-443,-440 -1164,-440 -1607,0 -444,440 -444,1153 0,1592l7879 7767c427,422 1180,424 1609,0l7880 -7768c443,-439 443,-1153 0,-1592 -445,-438 -1165,-438 -1609,2z"/>
    <path class="fil0" d="M8212 9689c427,422 1180,425 1609,0l7880 -7767c443,-440 443,-1153 0,-1592 -444,-440 -1164,-440 -1608,0l-7077 6975 -7076 -6975c-443,-440 -1164,-440 -1607,0 -444,440 -444,1153 0,1592l7879 7767z"/>
   </g>
   <g>
   </g>
   <g>
   </g>
   <g>
   </g>
   <g>
   </g>
   <g>
   </g>
   <g>
   </g>
  </g>
 </g>
</svg>
